<svg width="33" height="33" viewBox="0 0 33 33" fill="none" xmlns="http://www.w3.org/2000/svg">
<path d="M23.52 19.27C22.8 21.22 20.34 22.21 16.2 22.21C14.76 22.21 13.5 22.06 12.45 21.73C11.46 21.43 10.68 21.04 10.2 20.59C9.69 20.08 9.3 19.6 9.09 19.09C8.85 18.58 8.73 18.04 8.73 17.5V17.2C8.73 16.63 8.85 16.09 9.03 15.61C9.24 15.13 9.6 14.68 10.08 14.23C10.56 13.81 11.31 13.45 12.3 13.21C13.35 12.94 14.64 12.79 16.14 12.79C17.4 12.79 18.51 12.88 19.47 13.09C20.43 13.27 21.15 13.48 21.63 13.69C22.05 13.9 22.44 14.17 22.77 14.47C23.22 14.92 23.31 15.1 23.34 15.13C23.4 15.25 23.46 15.4 23.49 15.58L23.61 16H31.89V15.13C31.89 14.56 31.77 13.93 31.56 13.3C31.35 12.64 30.93 11.95 30.24 11.14C29.55 10.36 28.68 9.67 27.63 9.1C26.58 8.5 25.08 8.02 23.22 7.6C21.36 7.21 19.17 7 16.77 7H15.57C13.08 7 10.86 7.24 8.97 7.69C7.08 8.17 5.58 8.74 4.56 9.43C3.48 10.12 2.64 10.96 1.98 11.95C1.32 12.91 0.9 13.81 0.72 14.62C0.54 15.37 0.45 16.21 0.45 17.08V17.83C0.45 18.37 0.48 18.94 0.57 19.51C0.66 20.08 0.87 20.74 1.17 21.43C1.47 22.12 1.83 22.78 2.31 23.38C2.76 23.98 3.39 24.58 4.2 25.18C5.01 25.78 5.91 26.26 6.96 26.68C7.95 27.07 9.21 27.4 10.71 27.64C12.15 27.88 13.8 28.03 15.57 28.03H16.74C19.14 28.03 21.3 27.82 23.13 27.4C25.02 27.01 26.49 26.5 27.57 25.9C28.62 25.3 29.52 24.58 30.21 23.8C30.9 22.99 31.35 22.27 31.56 21.58C31.8 20.92 31.92 20.29 31.92 19.66V18.79H23.52V19.27Z" fill="black"/>
<ellipse cx="16" cy="1.5" rx="3" ry="1.5" fill="black"/>
</svg>
